@startuml Bomberman

class Juego
class Jugador

class Bomberman
class Habilidad
class PotenciaFuego
class Enemigo
class Velocidad
class NumeroBombas

class Sala
class Laberinto
class Puerta
class Roca
class ObjetoDestruible
class ObjetoIndestructible

Laberinto "1" *-- "*" Sala
Sala "1" *-- "1" Puerta
Sala "1" *-- "*" Roca
Sala "1" *-- "*" Enemigo
Roca "0,1" *-- "1" Item
Puerta --|> Item
PowerUp --|> Item
Roca --|> ObjetoDestruible
Enemigo --|> ObjetoDestruible
Bomba o-- ObjetoDestruible


class Item
class Bomba
class PowerUp
class FireUp
class Patines
class BombUp

Juego "1" *--  "1" Jugador
Jugador "1" o-- "1" Bomberman
Bomberman "1" *-- "*" Habilidad
BombUp --|> PowerUp
FireUp --|> PowerUp
Patines --|> PowerUp

PotenciaFuego --|> Habilidad
Velocidad --|> Habilidad
NumeroBombas --|> Habilidad

PowerUp --o Habilidad

NumeroBombas *-- Bomba

@enduml